<svg height="250" viewBox="0 0 250 250" width="250" xmlns="http://www.w3.org/2000/svg"><g fill="none" fill-rule="evenodd"><path d="m0 0h250v250h-250z"/><path d="m78.62 226.59c94.34 0 145.94-78.16 145.94-145.94 0-2.22 0-4.43-.15-6.63 10.038314-7.2608914 18.703555-16.251206 25.59-26.55-9.361209 4.1480177-19.291707 6.8682865-29.46 8.07 10.70744-6.4101794 18.721235-16.4922801 22.55-28.37-10.068425 5.9745532-21.083539 10.1851202-32.57 12.45-15.899172-16.9060572-41.162806-21.0438742-61.624507-10.0932007-20.461701 10.9506734-31.032743 34.266458-25.785493 56.8732007-41.2410426-2.0675046-79.6652422-21.5467673-105.71-53.59-13.61377244 23.4364473-6.6601212 53.4185948 15.88 68.47-8.162588-.241925-16.1472063-2.4438682-23.28-6.42v.65c.0066813 24.41593 17.2175149 45.445352 41.15 50.28-7.551304 2.0594-15.4741941 2.360443-23.16.88 6.7194793 20.894228 25.9757456 35.207839 47.92 35.62-18.1626496 14.274319-40.5994049 22.023277-63.7 22-4.08096431-.007835-8.15795935-.254925-12.21-.74 23.4563595 15.052766 50.749134 23.037169 78.62 23" fill="#1da1f2" fill-rule="nonzero"/></g></svg>