<svg viewBox="0 0 1024 1024" xmlns="http://www.w3.org/2000/svg"><path d="m967.48 0h-911a56.51 56.51 0 0 0 -56.48 56.52v911a56.51 56.51 0 0 0 56.52 56.48h490.48v-396h-133v-155h133v-114.07c0-132.26 80.77-204.28 198.76-204.28 56.51 0 105.08 4.21 119.24 6.09v138.26h-81.37c-64.2 0-76.63 30.51-76.63 75.28v98.72h153.49l-20 155h-133.49v396h260.48a56.51 56.51 0 0 0 56.52-56.52v-911a56.51 56.51 0 0 0 -56.52-56.48z" fill="#4267b2"/><path d="m707 1024v-396h133.5l20-155h-153.5v-98.72c0-44.77 12.43-75.28 76.63-75.28h81.37v-138.26c-14.16-1.88-62.73-6.09-119.24-6.09-118 0-198.76 72-198.76 204.28v114.07h-133v155h133v396z" fill="#fff"/><path d="m967.48 0h-911a56.51 56.51 0 0 0 -56.48 56.52v911a56.51 56.51 0 0 0 56.52 56.48h490.48v-396h-133v-155h133v-114.07c0-132.26 80.77-204.28 198.76-204.28 56.51 0 105.08 4.21 119.24 6.09v138.26h-81.37c-64.2 0-76.63 30.51-76.63 75.28v98.72h153.49l-20 155h-133.49v396h260.48a56.51 56.51 0 0 0 56.52-56.52v-911a56.51 56.51 0 0 0 -56.52-56.48z" fill="#4267b2"/><path d="m707 1024v-396h133.5l20-155h-153.5v-98.72c0-44.77 12.43-75.28 76.63-75.28h81.37v-138.26c-14.16-1.88-62.73-6.09-119.24-6.09-118 0-198.76 72-198.76 204.28v114.07h-133v155h133v396z" fill="#fff"/></svg>